<?xml version="1.0" standalone="no"?>
<!DOCTYPE svg PUBLIC "-//W3C//DTD SVG 20010904//EN"
 "http://www.w3.org/TR/2001/REC-SVG-20010904/DTD/svg10.dtd">
<svg version="1.0" xmlns="http://www.w3.org/2000/svg"
 width="300.000000pt" height="300.000000pt" viewBox="0 0 300.000000 300.000000"
 preserveAspectRatio="xMidYMid meet">
<metadata>
Created by potrace 1.10, written by Peter Selinger 2001-2011
</metadata>
<g transform="translate(0.000000,300.000000) scale(0.100000,-0.100000)"
fill="#000000" stroke="none">
<path d="M1352 2118 c-47 -46 -153 -149 -236 -230 l-151 -147 -51 -1 c-61 0
-93 -25 -75 -59 17 -32 13 -109 -10 -172 l-22 -59 -106 1 c-74 0 -99 3 -83 9
21 9 22 15 22 118 0 103 -1 110 -22 120 -19 9 -12 11 42 11 61 1 63 0 42 -15
-20 -14 -22 -23 -22 -120 l0 -104 48 0 c53 0 60 4 85 43 21 32 18 33 -32 8
-29 -15 -41 -17 -50 -8 -14 14 -15 141 -1 167 24 45 -76 82 -125 46 -17 -12
-18 -18 -8 -52 15 -54 16 -138 1 -186 -11 -36 -10 -42 7 -54 24 -18 196 -19
213 -2 9 9 18 9 37 0 14 -7 40 -12 58 -12 28 0 59 -27 266 -229 129 -126 245
-235 258 -242 20 -11 26 -10 40 3 15 16 17 99 9 498 -1 42 1 45 24 45 20 0 26
-6 28 -27 2 -15 -4 -40 -12 -57 -22 -41 -22 -400 -1 -446 12 -26 13 -2 14 210
l1 240 245 0 246 0 -78 -75 c-219 -209 -403 -393 -399 -397 2 -3 12 -1 21 5
34 18 447 426 458 451 16 36 24 40 61 27 20 -7 62 -8 116 -4 47 4 90 7 95 8 6
0 33 -3 61 -8 58 -9 99 0 133 29 31 25 34 98 6 129 -15 17 -16 24 -7 46 17 37
15 79 -6 97 -24 22 -112 22 -153 1 -28 -14 -32 -14 -48 0 -13 12 -40 16 -107
16 -49 0 -96 -5 -104 -10 -11 -7 -41 17 -130 103 -321 313 -381 368 -398 365
-35 -7 -42 -46 -43 -253 0 -136 -4 -190 -10 -170 -5 17 -9 113 -8 214 0 116
-4 188 -10 194 -8 8 -11 -60 -11 -225 l0 -236 -246 -1 -245 0 183 178 c101 97
205 197 231 221 53 48 75 80 56 80 -6 0 -50 -37 -97 -82z m521 -246 c81 -79
147 -145 147 -147 0 -2 -108 -3 -240 -4 l-240 0 0 236 0 237 93 -89 c50 -50
158 -154 240 -233z m-288 -280 c26 -62 57 -119 69 -127 19 -14 16 -15 -39 -15
-51 0 -56 2 -41 13 17 13 17 15 2 45 -15 29 -21 32 -65 32 -46 0 -50 -2 -60
-32 -10 -28 -9 -35 6 -45 14 -11 11 -13 -25 -13 l-43 0 20 28 c11 15 41 76 67
135 26 60 50 105 54 100 4 -4 28 -59 55 -121z m-535 104 c0 -8 3 -21 6 -30 3
-9 2 -16 -4 -16 -5 0 -12 9 -15 20 -4 17 -14 20 -56 20 l-51 0 0 -48 0 -47 44
3 c31 3 46 9 49 20 3 10 5 -5 5 -33 1 -39 -1 -45 -8 -27 -8 18 -17 22 -50 22
l-40 0 0 -55 0 -55 49 0 c41 0 53 4 69 25 27 34 32 31 19 -10 l-10 -35 -104 0
c-103 0 -103 0 -83 20 17 17 20 33 20 110 0 79 -3 92 -22 110 l-22 20 102 0
c81 0 102 -3 102 -14z m290 -6 c0 -8 3 -25 6 -37 4 -13 2 -23 -2 -23 -5 0 -14
10 -19 23 -22 49 -121 52 -157 5 -68 -90 15 -227 115 -189 23 9 27 16 27 48 0
42 -7 57 -30 66 -8 3 12 6 45 6 45 0 56 -2 43 -10 -13 -7 -18 -23 -18 -58 0
-45 -3 -50 -30 -61 -18 -7 -55 -11 -91 -8 -56 4 -65 8 -95 41 -39 42 -45 96
-19 148 27 51 69 70 152 67 57 -2 73 -6 73 -18z m560 -5 c0 -11 3 -30 6 -42 4
-13 2 -23 -4 -23 -6 0 -12 10 -14 23 -2 14 -16 29 -40 40 -33 16 -40 17 -71 3
-50 -20 -61 -49 -58 -139 3 -71 110 -106 161 -52 25 27 34 27 24 1 -10 -26
-58 -46 -110 -46 -41 0 -51 5 -85 39 -33 32 -39 45 -39 80 0 53 22 97 63 122
25 15 46 19 99 17 60 -3 68 -5 68 -23z m133 13 c-22 -10 -23 -17 -23 -118 0
-101 1 -108 23 -118 18 -9 11 -11 -43 -11 -49 0 -59 3 -42 9 21 9 22 15 22
118 0 103 -1 110 -22 120 -19 9 -12 11 42 11 54 0 61 -2 43 -11z m246 -20 c0
-33 0 -33 -16 -10 -12 18 -25 22 -64 22 l-49 0 0 -51 c0 -43 3 -50 16 -45 9 3
29 6 45 6 19 0 29 5 29 15 0 8 5 15 10 15 6 0 10 -21 9 -47 0 -47 -1 -47 -16
-25 -11 16 -25 22 -54 22 l-39 0 0 -55 0 -55 50 0 c42 0 55 5 75 26 27 29 32
20 13 -21 -11 -25 -13 -25 -117 -24 -74 0 -99 3 -83 9 21 9 22 15 22 118 0
103 -1 110 -22 120 -18 8 0 11 85 11 l107 1 -1 -32z m201 -18 l-1 -45 -17 34
c-19 39 -47 52 -79 40 -39 -14 -28 -45 30 -82 68 -44 79 -59 75 -99 -2 -27
-10 -36 -39 -51 -30 -14 -41 -15 -68 -6 -26 9 -35 9 -41 -1 -5 -7 -9 7 -12 35
-2 26 0 49 4 51 5 3 8 -2 8 -11 0 -20 44 -65 63 -65 8 0 25 8 37 18 30 25 18
46 -52 92 -44 29 -54 41 -56 69 -5 53 19 72 90 69 l58 -2 0 -46z m-1016 17
c-12 -39 -64 -147 -70 -147 -3 0 -3 12 0 26 5 18 2 32 -10 45 -12 13 -15 28
-10 53 7 38 15 43 64 44 29 0 32 -2 26 -21z m199 16 c2 -5 -5 -28 -16 -53
l-20 -45 -18 40 c-10 22 -19 46 -19 53 0 13 66 18 73 5z m409 -122 c-2 -45 -8
-81 -13 -81 -10 0 -13 163 -2 173 14 14 18 -13 15 -92z m-788 73 c15 -14 14
-17 -8 -35 -21 -17 -23 -23 -13 -48 13 -35 4 -61 -21 -61 -26 0 -52 31 -58 71
-11 65 59 115 100 73z m573 -10 c20 -15 42 -24 53 -21 23 6 27 -3 22 -54 -3
-30 -8 -39 -19 -35 -8 3 -27 -1 -43 -9 -43 -22 -76 -19 -98 10 -34 43 -9 135
36 135 8 0 30 -12 49 -26z m463 -59 c14 -16 6 -35 -16 -35 -8 0 -14 10 -14 25
0 28 12 32 30 10z m-1312 -59 c3 -13 -1 -17 -14 -14 -11 2 -20 11 -22 22 -3
13 1 17 14 14 11 -2 20 -11 22 -22z m1225 18 c9 -9 -4 -34 -18 -34 -14 0 -27
25 -18 34 4 3 12 6 18 6 6 0 14 -3 18 -6z m-763 -349 c0 -129 -2 -235 -3 -235
-2 0 -28 24 -58 53 -30 29 -139 135 -243 235 l-189 182 246 0 247 0 0 -235z"/>
<path d="M1500 1626 c-5 -14 -14 -37 -20 -51 -9 -24 -8 -25 35 -25 l44 0 -21
48 c-26 60 -26 60 -38 28z"/>
</g>
</svg>
